<svg xmlns="http://www.w3.org/2000/svg" version="1.1" xmlns:xlink="http://www.w3.org/1999/xlink" xmlns:svgjs="http://svgjs.com/svgjs" width="1440" height="560" preserveAspectRatio="none" viewBox="0 0 1440 560"><g mask="url(&quot;#SvgjsMask8304&quot;)" fill="none"><rect width="1440" height="560" x="0" y="0" fill="url(#SvgjsLinearGradient8305)"></rect><path d="M1440 0L1395.96 0L1440 272.97z" fill="rgba(255, 255, 255, .1)"></path><path d="M1395.96 0L1440 272.97L1440 393.07000000000005L1121.17 0z" fill="rgba(255, 255, 255, .075)"></path><path d="M1121.17 0L1440 393.07000000000005L1440 452.76000000000005L1106.8600000000001 0z" fill="rgba(255, 255, 255, .05)"></path><path d="M1106.86 0L1440 452.76000000000005L1440 488.24000000000007L676.0699999999999 0z" fill="rgba(255, 255, 255, .025)"></path><path d="M0 560L124.49 560L0 545.66z" fill="rgba(0, 0, 0, .1)"></path><path d="M0 545.66L124.49 560L602.65 560L0 289.76z" fill="rgba(0, 0, 0, .075)"></path><path d="M0 289.76L602.65 560L1070.13 560L0 274.55z" fill="rgba(0, 0, 0, .05)"></path><path d="M0 274.55L1070.13 560L1149.3500000000001 560L0 117.61000000000001z" fill="rgba(0, 0, 0, .025)"></path></g><defs><mask id="SvgjsMask8304"><rect width="1440" height="560" fill="#ffffff"></rect></mask><linearGradient x1="84.72%" y1="139.29%" x2="15.28%" y2="-39.29%" gradientUnits="userSpaceOnUse" id="SvgjsLinearGradient8305"><stop stop-color="rgba(255, 255, 255, 1)" offset="0.1"></stop><stop stop-color="rgba(225, 218, 255, 1)" offset="0.53"></stop><stop stop-color="rgba(225, 218, 255, 1)" offset="0.77"></stop><stop stop-color="rgba(255, 255, 255, 1)" offset="1"></stop></linearGradient></defs></svg>