<svg xmlns="http://www.w3.org/2000/svg" version="1.1" xmlns:xlink="http://www.w3.org/1999/xlink" xmlns:svgjs="http://svgjs.com/svgjs" width="1440" height="560" preserveAspectRatio="none" viewBox="0 0 1440 560"><g mask="url(&quot;#SvgjsMask1030&quot;)" fill="none"><rect width="1440" height="560" x="0" y="0" fill="url(#SvgjsLinearGradient1031)"></rect><path d="M1440 0L1018.36 0L1440 41.37z" fill="rgba(255, 255, 255, .1)"></path><path d="M1018.36 0L1440 41.37L1440 282.39L844.57 0z" fill="rgba(255, 255, 255, .075)"></path><path d="M844.57 0L1440 282.39L1440 296.78999999999996L741.1300000000001 0z" fill="rgba(255, 255, 255, .05)"></path><path d="M741.1300000000001 0L1440 296.78999999999996L1440 361.67999999999995L634.7900000000001 0z" fill="rgba(255, 255, 255, .025)"></path><path d="M0 560L570.76 560L0 380.16999999999996z" fill="rgba(0, 0, 0, .1)"></path><path d="M0 380.16999999999996L570.76 560L662 560L0 174.27999999999997z" fill="rgba(0, 0, 0, .075)"></path><path d="M0 174.27999999999997L662 560L891.33 560L0 143.02999999999997z" fill="rgba(0, 0, 0, .05)"></path><path d="M0 143.02999999999997L891.33 560L1026.22 560L0 102.66999999999997z" fill="rgba(0, 0, 0, .025)"></path></g><defs><mask id="SvgjsMask1030"><rect width="1440" height="560" fill="#ffffff"></rect></mask><linearGradient x1="84.72%" y1="139.29%" x2="15.28%" y2="-39.29%" gradientUnits="userSpaceOnUse" id="SvgjsLinearGradient1031"><stop stop-color="rgba(0, 111, 255, 1)" offset="0.12"></stop><stop stop-color="rgba(218, 234, 255, 1)" offset="0.94"></stop><stop stop-color="rgba(0, 111, 255, 1)" offset="1"></stop></linearGradient></defs></svg>