<svg width="210mm" height="297mm" version="1.1" viewBox="0 0 210 297" xmlns="http://www.w3.org/2000/svg">
 <defs>
  <clipPath id="a">
   <path d="m-11933 8371.9c-46.419-34.644-44.513-16.271-44.451-428.59 0.05-339.9-9.174-776.99-18.273-865.93-2.007-19.609-7.305-35.15-11.921-34.973-4.571 0.1739-42.914 53.115-85.207 117.64-110.74 168.96-114.02 172.68-152.25 172.68-26.882 0-34.538-3.9235-49.856-25.55-33.57-47.39-27.753-68.012 61.566-218.27 171.28-288.13 249.59-395.95 300.83-414.19 18.977-6.7548 85.526-10.179 199.73-10.278 165.48-0.1436 172.39 0.508 204.47 19.252 51.343 30.002 129.81 142.89 290.55 418.01 80.931 138.52 86.472 160.66 51.759 206.81-14.951 19.877-25.286 25.874-44.593 25.874-13.821 0-31.163-3.8347-38.535-8.522-7.374-4.687-54.156-70.294-103.96-145.79-49.804-75.499-94.292-137.43-98.863-137.63-17.455-0.7525-23.619 167.48-29.269 798.76l-4.365 487.71-22.853 27.136c-21.777 25.857-25.345 27.137-75.687 27.137-52.083 0-53.172-0.4418-76.763-31.018l-23.929-31.019v-703.9l-29.396-4.6836c-16.168-2.5761-31.896-2.8475-34.953-0.6028-3.057 2.2435-5.558 162.73-5.558 356.63v352.55l-23.575 30.558c-21.694 28.12-27.129 30.795-68.158 33.545-35.291 2.3648-49.15-0.4195-66.489-13.36zm128.15-1756.5c-80.98-35.849-137.7-128.41-137.7-224.72 0-69.306 18.893-121.12 62.782-172.18 59.935-69.724 122.69-88.311 202.77-60.06 49.504 17.464 111.18 88.74 128.19 148.14 32.704 114.24-10.773 241.06-101.6 296.36-37.899 23.075-116.2 29.39-154.45 12.457z" display="none" fill="#000000" stroke-width="7.6191"/>
   <path class="powerclip" d="m-13973 5767h3689.9v2626.8h-3689.9zm2039.7 2604.9c17.339 12.94 31.198 15.724 66.489 13.36 41.029-2.75 46.464-5.4244 68.158-33.545l23.575-30.558v-352.55c0-193.9 2.501-354.39 5.558-356.63 3.057-2.2447 18.785-1.9733 34.953 0.6028l29.396 4.6836v703.9l23.929 31.019c23.591 30.576 24.68 31.018 76.763 31.018 50.342 0 53.91-1.2794 75.687-27.137l22.853-27.136 4.365-487.71c5.65-631.28 11.814-799.51 29.269-798.76 4.571 0.1969 49.059 62.13 98.863 137.63 49.804 75.499 96.586 141.11 103.96 145.79 7.372 4.6873 24.714 8.522 38.535 8.522 19.307 0 29.642-5.9962 44.593-25.874 34.713-46.15 29.172-68.29-51.759-206.81-160.74-275.12-239.21-388.01-290.55-418.01-32.078-18.744-38.988-19.396-204.47-19.252-114.2 0.099-180.75 3.5237-199.73 10.278-51.242 18.24-129.55 126.06-300.83 414.19-89.319 150.26-95.136 170.88-61.566 218.27 15.318 21.626 22.974 25.55 49.856 25.55 38.229 0 41.511-3.724 152.25-172.68 42.293-64.528 80.636-117.47 85.207-117.64 4.616-0.1773 9.914 15.364 11.921 34.973 9.099 88.94 18.323 526.03 18.273 865.93-0.06 412.32-1.968 393.95 44.451 428.59zm128.15-1756.5c38.25 16.933 116.55 10.618 154.45-12.457 90.822-55.295 134.3-182.12 101.6-296.36-17.006-59.398-78.682-130.67-128.19-148.14-80.085-28.251-142.84-9.6643-202.77 60.06-43.889 51.059-62.782 102.87-62.782 172.18 0 96.304 56.721 188.87 137.7 224.72z" fill="#000000" stroke-width="7.6191"/>
  </clipPath>
 </defs>
 <text font-family="'VCR OSD Mono'" font-size="25.4px" style="line-height:1.25;shape-inside:url(#rect861);white-space:pre" xml:space="preserve"/>
 <path transform="matrix(.055237 0 0 .055237 774.34 -239.16)" d="m-13962 5777 264.74 2606.5h736.49c86.37-692.26 141.29-1147.3 164.76-1365.2 51.634 509.81 111.25 964.88 178.84 1365.2h740.72l260.12-2574.7v2575h592.86v-1175.2c81.676 0 131.9 16.637 150.68 49.908 19.715 33.272 29.574 119.67 29.574 259.2v866.13h550.61v-687.43c0-210.36-5.163-338.62-15.49-384.77-9.388-47.224-34.268-98.74-74.637-154.55-40.368-55.81-119.23-100.35-236.58-133.62 129.56-13.953 216.39-55.811 260.52-125.57 44.124-69.763 66.187-206.07 66.187-408.92 0-222.17-31.451-383.7-94.351-484.59-61.961-101.96-142.7-165.29-242.21-189.97-98.575-24.685-287.74-37.027-567.51-37.027h-416.47l0.03-0.3438h-575.96c-76.982 603.18-131.9 1219.8-164.76 1849.8l-64.778-990.1c-34.735-496.93-56.328-783.49-64.777-859.7h-616.8c-87.309 737.34-141.76 1333-163.35 1787l-61.961-877.4-60.553-909.6zm2938.5 446.29c68.533 0 115.47 12.878 140.82 38.637 26.287 25.759 39.432 79.959 39.432 162.6v143.28c0 114.84-13.614 182.99-40.84 204.46-26.286 20.392-72.757 30.59-139.41 30.59z" clip-path="url(#a)" fill="#2D3E4E" fill-opacity=".99608" stroke="#E09E50" stroke-opacity=".99462" stroke-width="10" style="font-variant-caps:normal;font-variant-east-asian:normal;font-variant-ligatures:normal;font-variant-numeric:normal;shape-inside:url(#rect1518);white-space:pre"/>
</svg>